<svg xmlns="http://www.w3.org/2000/svg" width="54.771" height="40.955" viewBox="0 0 54.771 40.955">
  <defs>
    <style>
      .cls-1 {
        fill: #3a3a3a;
      }
    </style>
  </defs>
  <path id="eye" class="cls-1" d="M130.434,204.857C124.479,192.313,115.478,186,103.411,186s-21.068,6.313-27.023,18.863a3.788,3.788,0,0,0,0,3.235c5.955,12.544,14.956,18.857,27.023,18.857s21.068-6.313,27.023-18.863A3.787,3.787,0,0,0,130.434,204.857Zm-27.023,17.576c-10.132,0-17.55-5.138-22.783-15.955,5.232-10.817,12.651-15.955,22.783-15.955s17.55,5.138,22.783,15.955C120.968,217.294,113.549,222.433,103.411,222.433Zm-.251-27.01a11.055,11.055,0,1,0,11.055,11.055A11.056,11.056,0,0,0,103.16,195.422Zm0,18.091a7.035,7.035,0,1,1,7.035-7.035A7.032,7.032,0,0,1,103.16,213.513Z" transform="translate(-76.025 -186)"/>
</svg>
