<svg xmlns="http://www.w3.org/2000/svg" width="39.638" height="41.857" viewBox="0 0 39.638 41.857">
  <defs>
    <style>
      .cls-1 {
        fill: #3a3a3a;
        fill-rule: evenodd;
      }
    </style>
  </defs>
  <path id="person" class="cls-1" d="M22.823,2.5A12.117,12.117,0,0,0,16,24.634,19.838,19.838,0,0,0,3,42.654a1.653,1.653,0,0,0,3.3.1,16.523,16.523,0,0,1,33.03,0,1.652,1.652,0,1,0,3.3-.1,19.838,19.838,0,0,0-13-18.023A12.117,12.117,0,0,0,22.823,2.5ZM14.011,14.617a8.812,8.812,0,1,1,8.812,8.812A8.812,8.812,0,0,1,14.011,14.617Z" transform="translate(-3.004 -2.5)"/>
</svg>
