<svg xmlns="http://www.w3.org/2000/svg" width="48.29" height="53.809" viewBox="0 0 48.29 53.809">
  <defs>
    <style>
      .cls-1 {
        fill: #3a3a3a;
        fill-rule: evenodd;
      }
    </style>
  </defs>
  <path id="share" class="cls-1" d="M33.6,11.218a8.968,8.968,0,1,1,2.3,6L28.4,21.3,20.014,26.1a9,9,0,0,1,.858,6.8L35.9,41.1a8.936,8.936,0,1,1-1.984,3.633l-15.031-8.2A8.967,8.967,0,1,1,17.088,23l9.3-5.313,7.532-4.108A8.98,8.98,0,0,1,33.6,11.218Zm8.968-4.829A4.829,4.829,0,1,0,47.4,11.218,4.829,4.829,0,0,0,42.572,6.389ZM12.218,25.705a4.829,4.829,0,1,0,4.829,4.829A4.829,4.829,0,0,0,12.218,25.705ZM37.743,47.091a4.829,4.829,0,1,1,4.829,4.829A4.829,4.829,0,0,1,37.743,47.091Z" transform="translate(-3.25 -2.25)"/>
</svg>
