<svg xmlns="http://www.w3.org/2000/svg" width="54.705" height="44.466" viewBox="0 0 54.705 44.466">
  <defs>
    <style>
      .cls-1 {
        fill: #3a3a3a;
      }
    </style>
  </defs>
  <path id="twitter" class="cls-1" d="M58.705,11.517a22.367,22.367,0,0,1-6.446,1.763,11.261,11.261,0,0,0,4.933-6.206A22.612,22.612,0,0,1,50.068,9.8a11.225,11.225,0,0,0-19.419,7.675,10.975,10.975,0,0,0,.294,2.555A31.814,31.814,0,0,1,7.811,8.3a11.229,11.229,0,0,0,3.472,14.985A11.16,11.16,0,0,1,6.2,21.881v.142a11.218,11.218,0,0,0,9,11.005,11.171,11.171,0,0,1-2.956.4,10.941,10.941,0,0,1-2.11-.2,11.243,11.243,0,0,0,10.48,7.8,22.51,22.51,0,0,1-13.935,4.8A22.251,22.251,0,0,1,4,45.663a31.739,31.739,0,0,0,17.2,5.048c20.648,0,31.938-17.1,31.938-31.938,0-.481-.018-.971-.036-1.451A22.99,22.99,0,0,0,58.705,11.517Z" transform="translate(-4 -6.246)"/>
</svg>
