<svg id="visa" xmlns="http://www.w3.org/2000/svg" width="79" height="79" viewBox="0 0 79 79">
  <defs>
    <style>
      .cls-1 {
        fill: none;
      }

      .cls-2 {
        fill: #3a3a3a;
      }
    </style>
  </defs>
  <path id="Path_6" data-name="Path 6" class="cls-1" d="M0,0H79V79H0Z"/>
  <path id="Path_7" data-name="Path 7" class="cls-2" d="M73.147,33.295l-.741-3.7H64.132l-1.317,3.677-6.633.013q4.737-11.394,9.494-22.773a2.9,2.9,0,0,1,2.909-1.934q1.619.015,5.286,0L79,33.285l-5.853.01Zm-7.153-8.776h5.332l-1.991-9.283-3.341,9.283ZM23.239,8.571l6.669.007L19.6,33.3l-6.751-.007Q10.3,23.5,7.818,13.686A3.388,3.388,0,0,0,5.583,11.04Q3.909,10.462,0,9.256V8.581H10.655A2.991,2.991,0,0,1,13.92,11.3q.523,2.75,2.633,14Zm15.833.007L33.8,33.291l-6.346-.007L32.719,8.571Zm12.87-.458a17.6,17.6,0,0,1,5.668,1.136L56.5,14.381a14.375,14.375,0,0,0-5.013-1.152c-2.5.043-4.049,1.093-4.049,2.1,0,1.639,2.686,2.465,5.451,4.256,3.157,2.041,3.571,3.874,3.532,5.866-.043,4.134-3.532,8.213-10.892,8.213a18.231,18.231,0,0,1-7.308-1.3l1.159-5.349c2.788,1.169,3.97,1.541,6.353,1.541,2.182,0,4.055-.882,4.072-2.419.013-1.093-.658-1.636-3.107-2.986s-5.885-3.226-5.839-6.985c.056-4.812,4.615-8.042,11.09-8.042Z" transform="translate(0 18.608)"/>
</svg>
